<?xml version="1.0" encoding="utf-8"?>
<!-- Generator: Adobe Illustrator 22.1.0, SVG Export Plug-In . SVG Version: 6.00 Build 0)  -->
<svg version="1.1" id="Layer_1" xmlns="http://www.w3.org/2000/svg" xmlns:xlink="http://www.w3.org/1999/xlink" x="0px" y="0px"
	 viewBox="0 0 35.236 28.672" style="enable-background:new 0 0 35.236 28.672;" xml:space="preserve">
<style type="text/css">
	.st0{fill:#23348A;}
</style>
<path class="st0" d="M21.109,26.243c-8.022,0-14.354-3.341-14.354-7.512c0-4.17,5.259-6.456,11.876-7.207
	c1.549-0.176,4.571-0.427,6.392-0.521c-2.27-0.278-4.655-0.487-7.474-0.487C7.858,10.516,0,14.58,0,19.593
	c0,5.015,7.858,9.079,17.549,9.079c8.656,0,15.846-3.244,17.282-7.51C32.862,24.119,27.464,26.243,21.109,26.243"/>
<path class="st0" d="M17.864,4.827c-6.585,0-11.844,2.275-11.844,2.275V0H0.363v12.402c0,0,3.307-5.306,13.757-5.306
	c8.024,0,14.324,3.229,14.324,8.007c0,5.034-6.3,8.006-14.324,8.006c-0.245,0-0.491-0.001-0.735-0.008
	c1.611,0.422,3.867,0.682,7.116,0.682c7.927,0,14.735-3.375,14.735-8.919C35.236,9.319,27.459,4.827,17.864,4.827"/>
</svg>
