<svg id="Layer_6" data-name="Layer 6" xmlns="http://www.w3.org/2000/svg" viewBox="0 0 44.989 35.243"><defs><style>.cls-1{fill:#00a8ea;}.cls-2{fill:#2d2e33;}</style></defs><title>logos</title><polygon class="cls-1" points="0 21.086 1.389 21.086 1.389 15.207 4.755 15.207 4.755 21.086 6.143 21.086 6.143 14.066 0 14.066 0 21.086"/><path class="cls-1" d="M1016.805,215.637a3.518,3.518,0,0,0-2.015-.432h-3.077v7.021h1.389v-2.3h1.813a3.079,3.079,0,0,0,2.021-.5,2.539,2.539,0,0,0,.554-1.913,2.2,2.2,0,0,0-.685-1.876m-1.022,2.928a1.652,1.652,0,0,1-1,.216H1013.1v-2.434h1.678a1.494,1.494,0,0,1,1.018.268,1.4,1.4,0,0,1,.284,1.02,1.161,1.161,0,0,1-.3.93" transform="translate(-1004.316 -201.139)"/><path class="cls-1" d="M1018.955,215.824a2.411,2.411,0,0,0-.5,1.651,1.958,1.958,0,0,0,1.388,2.1l-1.581,2.65h1.581l1.418-2.472h1.678v2.472h1.389v-7.021h-3.675a2.154,2.154,0,0,0-1.7.619m3.983.523v2.331h-2.006a1.15,1.15,0,0,1-.839-.254,1.307,1.307,0,0,1-.251-.921,1.29,1.29,0,0,1,.246-.9,1.147,1.147,0,0,1,.854-.259Z" transform="translate(-1004.316 -201.139)"/><polygon class="cls-1" points="25.547 19.279 25.507 19.279 23.55 14.065 21.264 14.065 21.264 21.086 22.653 21.086 22.653 15.207 24.919 21.086 26.163 21.086 28.439 15.171 28.439 21.086 29.828 21.086 29.828 14.065 27.465 14.065 25.547 19.279"/><path class="cls-1" d="M1036.681,221.065a5.165,5.165,0,0,0,.092-.638q.014-.243.014-.609v-4.613H1035.4v7.021h1.987l3.057-5.86a4.723,4.723,0,0,0-.092.632q-.014.248-.014.6v4.624h1.389v-7.021h-1.987Z" transform="translate(-1004.316 -201.139)"/><path class="cls-1" d="M1047.318,215.214l-3.057,5.851a4.985,4.985,0,0,0,.091-.637q.015-.243.015-.608v-4.606h-1.389v7.011h1.987l3.057-5.86a4.723,4.723,0,0,0-.092.632q-.014.249-.014.6v4.624h1.389v-7.011Z" transform="translate(-1004.316 -201.139)"/><rect class="cls-1" x="40.42" y="12.118" width="2.753" height="1.144"/><polygon class="cls-2" points="38.149 0 36.54 0 31.336 11.246 32.945 11.246 38.149 0"/><polygon class="cls-2" points="34.922 0 33.313 0 28.109 11.246 29.717 11.246 34.922 0"/><polygon class="cls-2" points="31.712 0 30.103 0 24.899 11.246 26.508 11.246 31.712 0"/><polygon class="cls-2" points="28.513 0 26.904 0 21.7 11.246 23.309 11.246 28.513 0"/><polygon class="cls-2" points="25.295 0 23.686 0 18.482 11.246 20.091 11.246 25.295 0"/><polygon class="cls-2" points="19.692 35.243 21.301 35.243 26.505 23.998 24.896 23.998 19.692 35.243"/><polygon class="cls-2" points="16.465 35.243 18.074 35.243 23.278 23.998 21.669 23.998 16.465 35.243"/><polygon class="cls-2" points="13.256 35.243 14.865 35.243 20.069 23.998 18.46 23.998 13.256 35.243"/><polygon class="cls-2" points="10.056 35.243 11.665 35.243 16.869 23.998 15.26 23.998 10.056 35.243"/><polygon class="cls-2" points="6.839 35.243 8.447 35.243 13.651 23.998 12.042 23.998 6.839 35.243"/></svg>