<?xml version="1.0" encoding="utf-8"?>
<!-- Generator: Adobe Illustrator 22.1.0, SVG Export Plug-In . SVG Version: 6.00 Build 0)  -->
<svg version="1.1" id="Layer_1" xmlns="http://www.w3.org/2000/svg" xmlns:xlink="http://www.w3.org/1999/xlink" x="0px" y="0px"
	 viewBox="0 0 125.62 47.095" style="enable-background:new 0 0 125.62 47.095;" xml:space="preserve">
<style type="text/css">
	.st0{fill:#00000E;}
	.st1{fill:none;stroke:#231F20;stroke-width:0.5;stroke-miterlimit:10;}
	.st2{fill:#231F20;}
</style>
<path class="st0" d="M8.567,32.215c-0.091,0.012-0.091,0.079-0.091,0.275v8.051c0,0.196,0,0.263,0.091,0.275l0.696,0.092v0.171
	H6.434v-0.171l0.696-0.092c0.091-0.012,0.091-0.079,0.091-0.275v-7.197l-2.829,7.848l-3.079-7.653v7.002c0,0.196,0,0.263,0.09,0.275
	l0.696,0.092v0.171H0v-0.171l0.696-0.092c0.091-0.012,0.091-0.079,0.091-0.275v-7.893c0-0.375,0-0.41-0.079-0.433L0,32.125v-0.172
	h2.11l2.682,6.673l2.429-6.673h2.042v0.172L8.567,32.215z"/>
<path class="st0" d="M18.615,40.907v0.172h-2.829v-0.172l0.696-0.09c0.091-0.011,0.091-0.08,0.01-0.275l-0.82-2.338h-2.818
	l-0.81,2.385c-0.045,0.136,0,0.217,0.091,0.228l0.697,0.09v0.172H10.63v-0.172l0.696-0.09c0.091-0.011,0.137-0.08,0.182-0.228
	l2.966-8.636l0.194-0.148l3.103,8.737c0.068,0.195,0.114,0.275,0.239,0.285L18.615,40.907z M15.547,37.839l-1.301-3.706
	l-1.267,3.706H15.547z"/>
<path class="st0" d="M27.51,31.953v0.171l-0.696,0.091c-0.091,0.012-0.091,0.079-0.091,0.275v8.418c0,0,0,0.171-0.091,0.171
	c-0.125,0-0.342-0.342-0.342-0.342l-4.848-7.085v6.89c0,0.195,0,0.262,0.091,0.275l0.696,0.091v0.171H20.13v-0.171l0.696-0.091
	c0.091-0.013,0.091-0.08,0.091-0.275v-7.893c0-0.376,0-0.411-0.08-0.434l-0.707-0.091v-0.171h1.722l4.347,6.468V32.49
	c0-0.196,0-0.263-0.092-0.275l-0.695-0.091v-0.171H27.51z"/>
<path class="st0" d="M29.425,31.953c2.042-0.103,3.718-0.103,3.81-0.103c2.84,0,4.323,2.178,4.426,4.426
	c0.103,2.373-1.335,4.802-4.335,4.802h-3.901v-0.17l0.696-0.091c0.091-0.013,0.091-0.08,0.091-0.275v-8.053
	c0-0.195,0-0.262-0.091-0.274l-0.696-0.091V31.953z M31.467,40.188c0,0.64,0.707,0.629,0.707,0.629s0.616,0.057,1.266,0
	c1.905-0.162,2.807-2.385,2.692-4.541c-0.091-1.847-0.935-3.627-2.532-4.027c0,0-0.548-0.194-2.133-0.044V40.188z"/>
<path class="st0" d="M46.499,40.907v0.172h-2.828v-0.172l0.694-0.09c0.092-0.011,0.092-0.08,0.013-0.275l-0.822-2.338h-2.818
	l-0.81,2.385c-0.045,0.136,0,0.217,0.092,0.228l0.695,0.09v0.172h-2.201v-0.172l0.696-0.09c0.091-0.011,0.136-0.08,0.182-0.228
	l2.966-8.636l0.194-0.148l3.103,8.737c0.069,0.195,0.114,0.275,0.239,0.285L46.499,40.907z M43.431,37.839l-1.301-3.706
	l-1.266,3.706H43.431z"/>
<path class="st0" d="M47.866,31.953l2.84-0.092c1.551-0.046,3.103,0.366,3.103,2.133c0,1.734-1.254,2.259-2.224,2.385
	c0.719,0.079,1.779,0.889,1.95,2.396c0.183,1.95,1.164,2.133,2.316,2.133l-0.091,0.171c-2.396,0.616-3.194-0.366-3.456-1.414
	c-0.241-0.958,0.079-2.852-1.689-3.207c-0.261-0.056-0.707,0-0.707,0v4.084c0,0.195,0,0.262,0.091,0.275l0.696,0.091v0.171h-2.829
	v-0.171l0.696-0.091c0.091-0.013,0.091-0.08,0.091-0.275V32.49c0-0.196,0-0.263-0.091-0.275l-0.696-0.091V31.953z M49.908,36.026
	h0.446c1.859,0,2.029-0.982,2.029-1.951c0-2.053-1.517-2.065-2.475-1.86V36.026z"/>
<path class="st0" d="M60.275,31.953v0.171l-0.696,0.091c-0.091,0.012-0.091,0.079-0.091,0.275v8.052c0,0.195,0,0.262,0.091,0.275
	l0.696,0.091v0.171h-2.829v-0.171l0.696-0.091c0.092-0.013,0.092-0.08,0.092-0.275V32.49c0-0.196,0-0.263-0.092-0.275l-0.696-0.091
	v-0.171H60.275z"/>
<path class="st0" d="M69.57,31.953v0.171l-0.696,0.091c-0.092,0.012-0.092,0.079-0.092,0.275v8.418c0,0,0,0.171-0.091,0.171
	c-0.125,0-0.342-0.342-0.342-0.342l-4.848-7.085v6.89c0,0.195,0,0.262,0.091,0.275l0.696,0.091v0.171h-2.099v-0.171l0.696-0.091
	c0.091-0.013,0.091-0.08,0.091-0.275v-7.893c0-0.376,0-0.411-0.08-0.434l-0.707-0.091v-0.171h1.723l4.347,6.468V32.49
	c0-0.196,0-0.263-0.093-0.275l-0.696-0.091v-0.171H69.57z"/>
<path class="st0" d="M84.02,32.215c-0.092,0.012-0.092,0.079-0.092,0.275v8.051c0,0.196,0,0.263,0.092,0.275l0.696,0.092v0.171
	h-2.83v-0.171l0.696-0.092c0.093-0.012,0.093-0.079,0.093-0.275v-7.197l-2.831,7.848l-3.079-7.653v7.002
	c0,0.196,0,0.263,0.091,0.275l0.697,0.092v0.171h-2.1v-0.171l0.696-0.092c0.092-0.012,0.092-0.079,0.092-0.275v-7.893
	c0-0.375,0-0.41-0.081-0.433l-0.707-0.09v-0.172h2.11l2.681,6.673l2.431-6.673h2.041v0.172L84.02,32.215z"/>
<path class="st0" d="M94.068,40.907v0.172H91.24v-0.172l0.697-0.09c0.089-0.011,0.089-0.08,0.009-0.275l-0.822-2.338h-2.817
	l-0.81,2.385c-0.046,0.136,0,0.217,0.092,0.228l0.696,0.09v0.172h-2.202v-0.172l0.696-0.09c0.092-0.011,0.136-0.08,0.182-0.228
	l2.967-8.636l0.193-0.148l3.102,8.737c0.069,0.195,0.114,0.275,0.241,0.285L94.068,40.907z M91,37.839l-1.302-3.706l-1.266,3.706H91
	z"/>
<path class="st0" d="M98.491,31.953v0.171l-0.696,0.091c-0.09,0.012-0.09,0.079-0.09,0.275v8.052c0,0.195,0,0.262,0.09,0.275
	l0.696,0.091v0.171h-2.829v-0.171l0.696-0.091c0.092-0.013,0.092-0.08,0.092-0.275V32.49c0-0.196,0-0.263-0.092-0.275l-0.696-0.091
	v-0.171H98.491z"/>
<path class="st0" d="M105.495,34.269c-0.035-0.49-0.298-2.134-2.27-2.134c-1.312,0-1.757,0.799-1.757,1.667
	c0,1.141,1.916,1.789,2.543,2.097c1.233,0.606,2.191,1.061,2.362,2.453c0.261,2.294-1.391,2.897-2.807,2.897
	c-0.946,0-2.009-0.603-2.36-0.603c-0.354,0-0.434,0.433-0.434,0.433h-0.263c0,0,0.092-0.342,0.092-0.879
	c0-0.604-0.195-1.564-0.195-1.564h0.251c0,1.85,2.112,2.215,2.909,2.215c1.243,0,1.678-0.662,1.678-1.619
	c0-0.902-0.753-1.416-1.668-1.884c-1.355-0.707-3.067-1.3-3.067-2.931c0-2.372,2.008-2.635,2.624-2.635
	c0.707,0,1.312,0.307,1.676,0.364c0.343,0.059,0.594-0.194,0.594-0.194h0.263c0,0-0.125,0.263-0.069,0.925
	c0.045,0.594,0.16,1.506,0.16,1.506h-0.262V34.269z"/>
<path class="st0" d="M116.718,36.515c0,2.626-1.94,4.734-4.291,4.734c-2.348,0-4.289-2.108-4.289-4.734
	c0-2.634,1.941-4.733,4.289-4.733C114.778,31.782,116.718,33.881,116.718,36.515 M115.393,36.515c0-2.543-1.38-4.345-2.966-4.345
	c-1.585,0-2.966,1.802-2.966,4.345c0,2.544,1.381,4.346,2.966,4.346C114.013,40.861,115.393,39.059,115.393,36.515"/>
<path class="st0" d="M125.613,31.953v0.171l-0.696,0.091c-0.091,0.012-0.091,0.079-0.091,0.275v8.418c0,0,0,0.171-0.09,0.171
	c-0.126,0-0.344-0.342-0.344-0.342l-4.848-7.085v6.89c0,0.195,0,0.262,0.092,0.275l0.695,0.091v0.171h-2.099v-0.171l0.695-0.091
	c0.092-0.013,0.092-0.08,0.092-0.275v-7.893c0-0.376,0-0.411-0.079-0.434l-0.708-0.091v-0.171h1.723l4.346,6.468V32.49
	c0-0.196,0-0.263-0.091-0.275l-0.697-0.091v-0.171H125.613z"/>
<path class="st1" d="M76.188,13.48c0,7.307-5.922,13.23-13.228,13.23c-7.307,0-13.231-5.923-13.231-13.23
	c0-7.308,5.924-13.23,13.231-13.23C70.266,0.25,76.188,6.172,76.188,13.48z"/>
<path class="st2" d="M68.177,8.494v7.824l-1.686-3.893L68.177,8.494z M57.74,16.219V8.494l1.657,3.862L57.74,16.219z M69.773,7.351
	c0.027-0.126,0.075-0.247,0.138-0.359c0.064-0.114,0.137-0.209,0.222-0.287c0.085-0.077,0.183-0.116,0.296-0.116h0.106V6.378H69.68
	h-1.537h-0.622l-4.563,10.759L58.396,6.378h-0.622h-1.538h-0.853v0.211h0.106c0.113,0,0.211,0.039,0.296,0.116
	c0.084,0.078,0.159,0.173,0.223,0.287c0.062,0.112,0.108,0.233,0.137,0.359c0.028,0.127,0.042,0.241,0.042,0.34v11.282
	c0,0.112-0.014,0.235-0.042,0.37c-0.029,0.135-0.075,0.258-0.137,0.371c-0.064,0.112-0.139,0.21-0.223,0.295
	c-0.085,0.087-0.183,0.128-0.296,0.128h-0.106v0.211h0.853h2.153h0.155v-0.211h-0.105c-0.114,0-0.212-0.041-0.297-0.128
	c-0.085-0.085-0.158-0.183-0.222-0.295c-0.026-0.045-0.036-0.101-0.055-0.15l2.299-5.421l2.762,6.438l0.032-0.076l0.034,0.076
	l2.729-6.361l2.312,5.397c-0.014,0.031-0.019,0.067-0.035,0.097c-0.064,0.112-0.136,0.21-0.222,0.295
	c-0.086,0.087-0.183,0.128-0.296,0.128h-0.107v0.211h0.158h2.149h0.855v-0.211h-0.106c-0.113,0-0.211-0.041-0.296-0.128
	c-0.085-0.085-0.158-0.183-0.222-0.295c-0.063-0.113-0.111-0.236-0.138-0.371c-0.027-0.135-0.043-0.258-0.043-0.37V7.691
	C69.73,7.592,69.746,7.478,69.773,7.351"/>
<path class="st2" d="M123.403,44.107l0.908,1.76l-0.34,0.68h0.519l1.13-2.44h-0.519l-0.523,1.229l-0.618-1.229H123.403z
	 M122.123,44.516h0.165c0.113,0,0.238,0.007,0.336,0.077c0.07,0.051,0.136,0.143,0.136,0.278c0,0.106-0.044,0.216-0.132,0.286
	c-0.102,0.077-0.22,0.077-0.311,0.077h-0.194V44.516z M121.648,44.107v2.44h0.475v-0.904h0.307c0.282,0,0.483-0.08,0.619-0.216
	c0.186-0.186,0.201-0.45,0.201-0.545c0-0.175-0.052-0.413-0.249-0.589c-0.179-0.157-0.369-0.186-0.644-0.186H121.648z
	 M119.833,46.17c-0.476,0-0.812-0.347-0.812-0.841s0.336-0.846,0.812-0.846c0.476,0,0.812,0.352,0.812,0.846
	S120.309,46.17,119.833,46.17 M119.833,44.052c-0.768,0-1.302,0.534-1.302,1.277c0,0.742,0.534,1.272,1.302,1.272
	s1.302-0.53,1.302-1.272C121.135,44.586,120.601,44.052,119.833,44.052 M116.723,44.107h-0.475v2.44h0.475v-1.039l0.055-0.055
	l0.867,1.094h0.629l-1.086-1.313l1.031-1.127h-0.6l-0.896,1.032V44.107z M115.714,44.107h-1.354v2.44h1.354v-0.41h-0.878v-0.666
	h0.841v-0.409h-0.841v-0.546h0.878V44.107z M112.531,44.516h0.71v1.621h-0.984c0.069-0.066,0.139-0.153,0.19-0.289
	c0.044-0.117,0.084-0.304,0.084-0.68V44.516z M112.07,44.107v1.06c0,0.337-0.04,0.52-0.088,0.641
	c-0.073,0.183-0.212,0.337-0.387,0.329v0.958h0.438v-0.548h1.501v0.548h0.438v-0.958h-0.256v-2.03H112.07z M109.491,44.445
	l0.461,1.154h-0.928L109.491,44.445z M110.508,46.547l-1.013-2.513l-1.028,2.513h0.174l0.324-0.801h1.045l0.32,0.801H110.508z
	 M108.511,44.107h-1.427v0.146h0.633v2.294h0.161v-2.294h0.633V44.107z M104.702,45.486h0.176c0.102,0,0.223,0,0.326,0.047
	c0.153,0.07,0.179,0.202,0.179,0.278c0,0.096-0.033,0.213-0.15,0.282c-0.106,0.063-0.238,0.066-0.326,0.066h-0.205V45.486z
	 M104.702,44.494h0.139c0.194,0,0.366,0.084,0.366,0.308c0,0.311-0.296,0.318-0.369,0.318h-0.136V44.494z M104.227,44.107v2.44
	h0.819c0.212,0,0.436-0.037,0.618-0.198c0.169-0.15,0.209-0.351,0.209-0.493c0-0.129-0.03-0.319-0.176-0.458
	c-0.062-0.058-0.157-0.128-0.318-0.154c0.066-0.036,0.274-0.164,0.274-0.479c0-0.205-0.084-0.395-0.226-0.505
	c-0.198-0.153-0.461-0.153-0.597-0.153H104.227z M103.122,46.547h0.475v-2.44h-0.475V46.547z M101.197,44.107h-0.475v2.44h0.475
	v-1.039l0.055-0.055l0.867,1.094h0.63l-1.087-1.313l1.032-1.127h-0.6l-0.897,1.032V44.107z M98.585,44.107H98.11v2.44h0.475V45.46
	h1.032v1.087h0.476v-2.44h-0.476v0.944h-1.032V44.107z M95.535,44.107l0.907,1.76l-0.34,0.68h0.519l1.131-2.44h-0.52l-0.523,1.229
	l-0.618-1.229H95.535z M94.254,44.516h0.165c0.113,0,0.238,0.007,0.336,0.077c0.07,0.051,0.136,0.143,0.136,0.278
	c0,0.106-0.044,0.216-0.132,0.286c-0.102,0.077-0.22,0.077-0.311,0.077h-0.194V44.516z M93.779,44.107v2.44h0.475v-0.904h0.307
	c0.282,0,0.483-0.08,0.619-0.216c0.186-0.186,0.201-0.45,0.201-0.545c0-0.175-0.051-0.413-0.249-0.589
	c-0.179-0.157-0.369-0.186-0.644-0.186H93.779z M91.858,45.647l0.351-0.878l0.344,0.878H91.858z M92.908,46.547h0.512l-1.028-2.491
	h-0.358l-1.058,2.491h0.516l0.216-0.513h0.984L92.908,46.547z M89.418,44.516h0.71v1.621h-0.985c0.07-0.066,0.139-0.153,0.191-0.289
	c0.043-0.117,0.084-0.304,0.084-0.68V44.516z M88.957,44.107v1.06c0,0.337-0.04,0.52-0.088,0.641
	c-0.073,0.183-0.212,0.337-0.387,0.329v0.958h0.438v-0.548h1.5v0.548h0.439v-0.958h-0.256v-2.03H88.957z M86.908,46.17
	c-0.475,0-0.812-0.347-0.812-0.841s0.337-0.846,0.812-0.846c0.476,0,0.813,0.352,0.813,0.846S87.384,46.17,86.908,46.17
	 M86.908,44.052c-0.768,0-1.302,0.534-1.302,1.277c0,0.742,0.534,1.272,1.302,1.272c0.769,0,1.302-0.53,1.302-1.272
	C88.21,44.586,87.677,44.052,86.908,44.052 M83.162,44.107v2.44h0.476v-2.031h0.98v2.031h0.475v-2.44H83.162z M79.288,44.587
	l0.958,2.048l0.959-2.048l0.215,1.96h0.162l-0.278-2.524l-1.058,2.258l-1.057-2.258l-0.278,2.524h0.162L79.288,44.587z
	 M78.044,46.547h0.161v-2.44h-0.161V46.547z M77.152,44.253V46.4h-1.328c0.039-0.039,0.073-0.082,0.104-0.129
	c0.03-0.048,0.058-0.101,0.082-0.16c0.029-0.078,0.051-0.169,0.066-0.274s0.022-0.24,0.022-0.406v-1.178H77.152z M75.937,45.431
	c-0.002,0.144-0.01,0.268-0.024,0.371c-0.013,0.104-0.035,0.194-0.064,0.269c-0.044,0.11-0.101,0.194-0.172,0.251
	c-0.071,0.057-0.142,0.083-0.216,0.078v0.637h0.154v-0.49h1.822v0.49h0.154V46.4h-0.278v-2.293h-1.376V45.431z"/>
</svg>
