<svg id="_4" data-name="4" xmlns="http://www.w3.org/2000/svg" viewBox="0 0 185.013 76.624"><defs><style>.cls-1{fill:#3a4b57;}.cls-2{fill:#b6006d;}</style></defs><title>logo4</title><polygon class="cls-1" points="74.376 69.855 75.58 69.855 75.58 72.723 75.638 72.723 78.439 69.855 80.064 69.855 76.9 72.981 80.274 76.624 78.582 76.624 75.647 73.297 75.58 73.297 75.58 76.624 74.376 76.624 74.376 69.855"/><rect class="cls-1" x="83.44" y="69.855" width="1.204" height="6.769"/><polygon class="cls-1" points="88.608 69.855 93.092 69.855 93.092 70.945 89.812 70.945 89.812 72.609 92.919 72.609 92.919 73.698 89.812 73.698 89.812 75.534 93.264 75.534 93.264 76.624 88.608 76.624 88.608 69.855"/><polygon class="cls-1" points="96.232 69.855 97.619 69.855 99.464 74.97 101.366 69.855 102.667 69.855 99.932 76.624 98.89 76.624 96.232 69.855"/><path class="cls-1" d="M971.373,341.762h.573c.5,0,.976-.025.976-.614,0-.506-.438-.564-.817-.564h-.732Zm-.556-1.633H972.2c.867,0,1.28.345,1.28,1.044a.947.947,0,0,1-.968,1l1.052,1.616h-.6l-.993-1.574h-.6v1.574h-.556Zm1.2,4.512a2.679,2.679,0,1,0-2.576-2.677,2.6,2.6,0,0,0,2.576,2.677m0-5.808a3.131,3.131,0,1,1-3.131,3.131,3.115,3.115,0,0,1,3.131-3.131" transform="translate(-790.131 -312.371)"/><path class="cls-1" d="M966.414,343.324v-3.78c-3.483-.323-6.249-.585-8.89-.831v-5.64c-1.7-.217-2.54-.32-4.235-.533v5.777c-2.425-.232-1.348-.1-4.513-.4v3.953c3.165.264,2.088.16,4.513.364V363.4c0,7.864,8.985,8.922,9.876,9.009v-3.739c-1.653-.167-5.641-1.016-5.641-5.349V342.586c2.641.22,5.407.447,8.89.738" transform="translate(-790.131 -312.371)"/><path class="cls-1" d="M858.348,372.433V312.371c1.713.225,2.566.335,4.282.558v59.5c-1.716-.007-2.569,0-4.282,0" transform="translate(-790.131 -312.371)"/><path class="cls-1" d="M907.905,343.915c0-4.87-2.254-7.22-6.921-7.628-6.27-.543-9.408-.815-15.677-1.355-4.663-.408-7.294,1.419-7.294,6.89v18.634c0,5.385,2.783,7.212,7.294,7.268,6.316,0,9.364.015,15.724.015,4.286.054,6.874-1.566,6.874-6.351Zm-6.108,28.54c-6.843-.015-10.332.01-17.174,0-6.994-.018-10.974-3.41-10.974-11.524V340.913c0-8.022,3.76-11.543,10.976-10.841,6.844.67,10.266,1,17.11,1.671,7.072.687,10.457,4.816,10.457,11.918v18.314c0,7.194-3.473,10.5-10.395,10.48" transform="translate(-790.131 -312.371)"/><path class="cls-1" d="M957.129,318.87a20.312,20.312,0,0,0-7.794-.217,171.584,171.584,0,0,0-18,4.44c-.972.3-1.451.454-2.426.763-5.06,1.566-8.719,2.78-8.719,9.771,0,15.617,0,23.189,0,38.808h4.226v-32.6c6.447.534,9.688.838,17.016,1.448v-4.027c-7.328-.689-10.569-1.061-17.016-1.664v-1.561c0-4.136,1.43-4.634,6.187-6.14,1-.328,1.5-.488,2.5-.813a169.461,169.461,0,0,1,17.633-4.488,16.124,16.124,0,0,1,6.321.16c.71.1,1.063.155,1.774.257v-3.873c-.681-.109-1.027-.162-1.707-.269" transform="translate(-790.131 -312.371)"/><path class="cls-2" d="M838.685,354.238c-7.993.813-15.546,1.472-23.594,2.334a6.427,6.427,0,0,0-5.915,6.84c.016,1.728.022-.228.039,1.5,0,3.113,2.363,5.464,6.106,5.464,5.9,0,11.795-.015,17.683-.015,4.509,0,5.791-3.778,5.73-7.348-.065-3.778-.019-4.952-.049-8.771" transform="translate(-790.131 -312.371)"/><path class="cls-2" d="M804.492,366.344v-3.916c0-5.6,3.744-9.3,9.734-10.2,8.247-1.137,24.658-2.991,24.658-2.991v-4.755c.144-4.046-2.223-6.744-6.74-5.746-7.476,1.248-14.5,2.187-22.241,3.522-.015-1.785.011-2.644,0-4.557,7.487-1.446,12.347-2.218,19.751-3.633,11.415-2.222,13.642,1.752,13.642,9.512,0,6.274-.061,9.044-.026,15.349v3.238c0,5.132,2.683,7.381,3.762,7.728a9.163,9.163,0,0,0,.52-3.716V320.252c0-7.733-5.592-5.594-10.589-4.4s-30.34,7.734-38.431,9.756-8.4,4.6-8.4,9.414v29.236c0,7.376,2.1,8.228,8.165,8.228h9.056a7.863,7.863,0,0,1-2.86-6.139" transform="translate(-790.131 -312.371)"/></svg>