<?xml version="1.0" encoding="utf-8"?>
<!-- Generator: Adobe Illustrator 22.1.0, SVG Export Plug-In . SVG Version: 6.00 Build 0)  -->
<svg version="1.1" id="Layer_1" xmlns="http://www.w3.org/2000/svg" xmlns:xlink="http://www.w3.org/1999/xlink" x="0px" y="0px"
	 viewBox="0 0 61.742 39.126" style="enable-background:new 0 0 61.742 39.126;" xml:space="preserve">
<style type="text/css">
	.st0{fill:#AC141C;}
	.st1{fill:#4B4B50;}
</style>
<path class="st0" d="M6.973,27.069c-1.591,1.568-2.325,4.26-1.807,4.811c0.517,0.554,1.787-0.566,3.055-2.126
	c1.873-2.305,2.386-5.432,2.386-5.432S8.912,25.154,6.973,27.069 M2.504,8.226C3.121,5.387,4.213,3.399,7.64,1.385
	c3.427-2.013,7.689-1.822,8.695,0.512c1.038,2.407,0.507,5.029-1.214,8.343c-1.282,2.465-2.503,3.836-2.503,3.836
	s1.685,0.229,2.495,1.715c0.669,1.228,0.585,4.142,0.585,4.142l-0.45,2.025c0,0-1.06,4.659-5.091,9.674
	c-3.736,4.645-8.002,5.829-9.704,3.469c-1.538-2.13,1.127-7.158,3.72-9.541c3.565-3.274,6.874-4.688,6.874-4.688
	s0.382-1.573-0.472-2.405c-1.324-1.292-4.503-0.849-4.503-0.849s2.067-2.672,4.011-5.635c2.461-3.748,1.338-6.412-1.558-3.972
	c-3.76,3.168-2.909,6.109-2.909,6.109S1.815,11.397,2.504,8.226"/>
<path class="st0" d="M49.468,24.541c-0.91,1.036-1.859,1.188-2.209,0.525c-0.253-0.816-0.03-1.921,1.11-2.925
	C50.122,20.598,50.975,22.823,49.468,24.541 M49.317,11.538c0.932-1.421,2.445-3.105,2.929-2.685c0.484,0.42-0.44,3.382-1.643,4.84
	c-1.467,1.783-2.823,2.629-2.823,2.629S47.941,13.644,49.317,11.538 M49.593,17.882c0.909-0.747,2.063-1.796,3.274-3.163
	c1.978-2.235,4.903-7.781,3.424-9.441c-1.639-1.837-5.869,0.546-8.611,4.784c-2.959,4.574-2.806,8.554-2.806,8.554
	s-0.645,2.772-0.314,4.698c0.281,1.638,0.627,2.505,1.192,3.225c0.466,0.546,1.062,1.033,1.857,1.157
	c1.195,0.187,2.525-0.596,2.525-0.596s1.27-0.491,2.547-2.365c1.267-1.858,1.261-3.829,0.815-5.344
	C53.146,18.203,51.249,17.583,49.593,17.882"/>
<path class="st0" d="M18.346,20.496c-0.967,1.624-0.991,3.986-0.449,4.329c0.542,0.34,1.343-0.846,2.047-2.396
	c1.041-2.29,0.791-4.961,0.791-4.961S19.526,18.512,18.346,20.496 M19.828,8.088c0,0,1.655-0.275,2.803,1.103
	c1.232,1.478,1.413,5.561,1.413,5.561s0.116,3.828-2.113,8.799c-2.064,4.606-5.305,6.488-7.206,4.92
	c-1.715-1.414-0.387-6.135,1.227-8.644c2.219-3.444,4.403-5.277,4.403-5.277s-0.021-1.591-0.895-2.096
	c-2.436-1.41-3.876,0.496-3.876,0.496s-1.073-0.937,0.89-3.207C17.944,8.042,19.828,8.088,19.828,8.088"/>
<path class="st0" d="M25.763,19.072c-0.878,1.675-0.777,4.033-0.217,4.346c0.559,0.312,1.296-0.916,1.916-2.5
	c0.917-2.343,0.054-4.759,0.054-4.759S26.835,17.029,25.763,19.072 M31.841,12.929c0.977,1.752-0.251,5.791-1.905,9.799
	c-1.927,4.664-5.382,5.964-7.362,4.501c-1.789-1.321-0.716-6.107,0.763-8.697c2.031-3.558,4.207-5.353,4.207-5.353
	S30.686,9.979,31.841,12.929"/>
<path class="st0" d="M40.192,18.429c-0.825,1.548-0.651,3.69-0.081,3.959c0.568,0.267,1.383-0.838,1.837-2.327
	c0.705-2.314-0.094-4.331-0.094-4.331S41.201,16.541,40.192,18.429 M46.075,12.671c1.031,1.565,0.111,5.262-1.419,8.955
	c-1.779,4.295-5.372,5.586-7.398,4.312c-1.829-1.152-0.904-5.533,0.493-7.932c1.919-3.292,4.037-4.987,4.037-4.987
	S44.83,10.023,46.075,12.671"/>
<path class="st0" d="M55.352,15.85c-0.544,1.558-0.432,3.467,0.152,3.69c0.583,0.223,1.331-0.843,1.696-2.253
	c0.568-2.187-0.349-4.028-0.349-4.028S55.918,14.23,55.352,15.85 M60.884,10.213c1.121,1.41,1.283,5.627-0.36,8.697
	c-2.057,3.843-5.56,5.162-7.658,4.069c-1.893-0.988-1.153-5.415,0.099-7.713c1.723-3.156,3.342-4.55,3.342-4.55
	S59.486,7.803,60.884,10.213"/>
<path class="st0" d="M38.138,13.801c-0.308,0.291-0.866,0.874-1.551,1.261c-0.07-0.716-0.159-1.293-0.273-1.676
	c-0.109-0.368,2.57-4.422,2.997-1.975C39.416,12.011,39.247,12.761,38.138,13.801 M32.453,29.556
	c-0.483,2.049-1.089,4.216-1.713,3.415c-0.628-0.802-1.385-5.206,0.911-12.122c0.836-2.511,1.982-4.037,1.982-4.037
	S33.166,26.525,32.453,29.556 M41.992,8.1c-0.675-1.105-2.973-0.726-5.405,1.376c-4.505,3.892-5.448,7.428-6.627,9.919
	c-2.417,5.102-3.076,14.835-1.038,17.894c2.255,3.392,5.346,2.103,6.752-4.01c0.842-3.664,1.244-11.76,1.024-16.59
	c0.598-0.254,3.072-1.154,4.062-2.756C41.87,12.137,42.6,9.098,41.992,8.1"/>
<path class="st1" d="M38.688,32.655h0.69c0.339-0.007,0.509-0.179,0.509-0.516c0-0.102-0.016-0.183-0.047-0.245
	c-0.033-0.063-0.077-0.112-0.132-0.145c-0.052-0.036-0.114-0.06-0.182-0.07c-0.065-0.01-0.133-0.015-0.202-0.015h-0.636V32.655z
	 M38.688,31.353h0.583c0.155,0.002,0.276-0.031,0.364-0.101c0.088-0.068,0.131-0.187,0.131-0.355c0-0.134-0.036-0.237-0.109-0.306
	c-0.076-0.071-0.204-0.106-0.383-0.106h-0.586V31.353z M38.354,30.158h1.063c0.229,0.003,0.4,0.073,0.513,0.211
	c0.113,0.134,0.17,0.301,0.17,0.501c0,0.047-0.004,0.096-0.011,0.149c-0.009,0.051-0.026,0.105-0.05,0.159
	c-0.045,0.111-0.135,0.205-0.269,0.283c0.043,0.014,0.091,0.036,0.144,0.066c0.05,0.032,0.097,0.073,0.143,0.122
	c0.048,0.048,0.088,0.113,0.121,0.194c0.029,0.079,0.043,0.181,0.043,0.303c0,0.234-0.069,0.429-0.207,0.587
	c-0.14,0.164-0.347,0.246-0.619,0.249h-1.041V30.158z"/>
<polygon class="st1" points="41.008,32.47 41.021,32.47 42.242,30.157 42.612,30.157 42.612,32.981 42.279,32.981 42.279,30.701 
	42.272,30.701 41.048,32.981 40.674,32.981 40.674,30.157 41.008,30.157 "/>
<path class="st1" d="M43.507,31.465h0.642c0.146,0.002,0.264-0.036,0.352-0.116c0.087-0.075,0.132-0.206,0.134-0.393
	c-0.002-0.176-0.047-0.299-0.134-0.369c-0.088-0.068-0.201-0.102-0.339-0.102h-0.655V31.465z M43.507,32.982h-0.334v-2.824h1.089
	c0.228,0.003,0.404,0.076,0.529,0.222c0.123,0.148,0.186,0.339,0.188,0.572c0.004,0.205-0.049,0.393-0.159,0.563
	c-0.109,0.179-0.294,0.271-0.553,0.276h-0.76V32.982z"/>
<path class="st1" d="M47.346,31.569c-0.002-0.343-0.075-0.619-0.218-0.827c-0.147-0.212-0.351-0.318-0.614-0.321
	c-0.262,0.003-0.465,0.108-0.61,0.317c-0.148,0.209-0.221,0.483-0.221,0.823c0,0.338,0.073,0.613,0.221,0.826
	c0.145,0.218,0.348,0.328,0.61,0.33c0.263-0.002,0.467-0.111,0.614-0.327C47.271,32.18,47.344,31.906,47.346,31.569 M47.69,31.569
	c0,0.152-0.018,0.315-0.054,0.487c-0.04,0.171-0.104,0.332-0.193,0.483c-0.089,0.149-0.21,0.271-0.363,0.364
	c-0.15,0.099-0.339,0.15-0.566,0.152c-0.222-0.002-0.408-0.053-0.559-0.152c-0.153-0.093-0.274-0.215-0.362-0.364
	c-0.089-0.151-0.154-0.312-0.194-0.483c-0.04-0.172-0.06-0.334-0.06-0.486c0-0.158,0.02-0.323,0.06-0.494
	c0.04-0.172,0.105-0.333,0.194-0.482c0.088-0.151,0.209-0.273,0.362-0.367c0.076-0.046,0.16-0.082,0.254-0.108
	c0.093-0.024,0.195-0.036,0.305-0.036c0.113,0,0.218,0.012,0.314,0.036c0.094,0.025,0.177,0.061,0.252,0.108
	c0.153,0.094,0.274,0.216,0.363,0.367c0.089,0.149,0.153,0.31,0.193,0.482C47.672,31.246,47.69,31.411,47.69,31.569"/>
<path class="st1" d="M48.495,32.644h0.69c0.139,0.003,0.252-0.031,0.34-0.101c0.086-0.068,0.129-0.187,0.131-0.359
	c-0.002-0.188-0.047-0.323-0.135-0.404c-0.092-0.078-0.211-0.116-0.358-0.116h-0.668V32.644z M49.861,30.158v0.338h-1.366v0.83
	h0.783c0.132,0,0.244,0.026,0.337,0.078s0.167,0.119,0.223,0.201C49.946,31.784,50,31.978,50,32.188
	c-0.002,0.231-0.066,0.419-0.193,0.564c-0.128,0.151-0.302,0.227-0.523,0.23H48.16v-2.824H49.861z"/>
<polygon class="st1" points="50.791,31.326 52.038,31.326 52.038,30.158 52.372,30.158 52.372,32.982 52.038,32.982 52.038,31.664 
	50.791,31.664 50.791,32.982 50.457,32.982 50.457,30.158 50.791,30.158 "/>
<polygon class="st1" points="53.266,32.47 53.279,32.47 54.5,30.157 54.87,30.157 54.87,32.981 54.537,32.981 54.537,30.701 
	54.53,30.701 53.306,32.981 52.932,32.981 52.932,30.157 53.266,30.157 "/>
<path class="st1" d="M55.765,30.158v0.872c0.002,0.161,0.049,0.273,0.141,0.338c0.09,0.064,0.198,0.095,0.326,0.093
	c0.236-0.005,0.457-0.038,0.661-0.101v-1.202h0.335v2.824h-0.335v-1.307c-0.215,0.078-0.47,0.119-0.766,0.124
	c-0.185,0.004-0.346-0.05-0.481-0.16c-0.141-0.109-0.213-0.309-0.215-0.602v-0.879H55.765z"/>
<path class="st1" d="M59.069,31.823l-0.367-1.247h-0.006L58.3,31.823H59.069z M58.196,32.157l-0.259,0.824h-0.346l0.934-2.824h0.379
	l0.898,2.824h-0.368l-0.245-0.824H58.196z"/>
<polygon class="st1" points="38.688,35.703 39.856,34.334 40.304,34.334 39.302,35.473 40.33,37.158 39.909,37.158 39.067,35.743 
	38.688,36.167 38.688,37.158 38.354,37.158 38.354,34.334 38.688,34.334 "/>
<path class="st1" d="M42.472,35.746c-0.002-0.343-0.075-0.619-0.218-0.827c-0.147-0.211-0.351-0.318-0.614-0.321
	c-0.262,0.003-0.465,0.108-0.61,0.317c-0.148,0.209-0.221,0.483-0.221,0.823c0,0.338,0.073,0.613,0.221,0.826
	c0.145,0.218,0.348,0.328,0.61,0.33c0.263-0.002,0.467-0.111,0.614-0.327C42.397,36.357,42.47,36.083,42.472,35.746 M42.816,35.746
	c0,0.152-0.018,0.315-0.054,0.487c-0.04,0.171-0.104,0.332-0.193,0.483c-0.089,0.149-0.21,0.271-0.363,0.364
	c-0.15,0.099-0.339,0.15-0.566,0.152c-0.222-0.002-0.408-0.053-0.559-0.152c-0.153-0.093-0.274-0.215-0.362-0.364
	c-0.09-0.151-0.154-0.312-0.194-0.483c-0.041-0.172-0.061-0.334-0.061-0.486c0-0.158,0.02-0.323,0.061-0.494
	c0.04-0.172,0.104-0.333,0.194-0.482c0.088-0.151,0.209-0.273,0.362-0.366c0.076-0.047,0.16-0.083,0.254-0.109
	c0.093-0.024,0.195-0.036,0.305-0.036c0.113,0,0.218,0.012,0.314,0.036c0.094,0.025,0.177,0.061,0.252,0.109
	c0.153,0.093,0.274,0.215,0.363,0.366c0.089,0.149,0.153,0.31,0.193,0.482C42.798,35.423,42.816,35.588,42.816,35.746"/>
<path class="st1" d="M43.754,34.334l0.683,2.391h0.007l0.687-2.391h0.46v2.824h-0.314v-1.669c0.002-0.145,0.005-0.379,0.009-0.703
	h-0.003l-0.68,2.372h-0.321l-0.677-2.372h-0.01c0.002,0.321,0.005,0.556,0.01,0.703v1.669h-0.314v-2.824H43.754z"/>
<polygon class="st1" points="48.083,34.334 48.083,37.158 47.749,37.158 47.749,34.672 46.502,34.672 46.502,37.158 46.168,37.158 
	46.168,34.334 "/>
<path class="st1" d="M49.929,35.999l-0.367-1.247h-0.006l-0.396,1.247H49.929z M49.056,36.333l-0.259,0.824h-0.346l0.934-2.824
	h0.379l0.898,2.824h-0.368l-0.245-0.824H49.056z"/>
<polygon class="st1" points="51.284,35.502 52.531,35.502 52.531,34.334 52.865,34.334 52.865,37.158 52.531,37.158 52.531,35.84 
	51.284,35.84 51.284,37.158 50.95,37.158 50.95,34.334 51.284,34.334 "/>
<rect x="53.425" y="34.334" class="st1" width="0.334" height="2.824"/>
<path class="st1" d="M55.787,34.66h-0.764c-0.04,0-0.084,0.003-0.132,0.008c-0.05,0.011-0.098,0.032-0.141,0.063
	c-0.044,0.029-0.08,0.075-0.108,0.14c-0.033,0.065-0.05,0.152-0.05,0.261c0,0.096,0.017,0.175,0.05,0.237
	c0.03,0.065,0.07,0.116,0.122,0.156c0.051,0.034,0.106,0.059,0.167,0.074c0.059,0.015,0.119,0.023,0.179,0.023h0.677V34.66z
	 M56.121,37.158h-0.334v-1.21h-0.536l-0.646,1.21h-0.406l0.689-1.21c-0.062-0.015-0.129-0.04-0.2-0.074
	c-0.072-0.03-0.141-0.077-0.208-0.141c-0.065-0.064-0.119-0.147-0.162-0.248c-0.047-0.1-0.07-0.226-0.07-0.376
	c0-0.151,0.023-0.277,0.07-0.378c0.044-0.102,0.105-0.181,0.181-0.238c0.157-0.108,0.339-0.162,0.547-0.159h1.075V37.158z"/>
</svg>
